<svg xmlns="http://www.w3.org/2000/svg" viewBox="0 0 615 471" fill="#6d28d9">
  <g transform="translate(0,471) scale(0.1,-0.1)">
    <path d="M5510 4695 c-179 -36 -318 -127 -405 -265 -42 -66 -73 -160 -101
-303 -29 -147 -48 -183 -97 -192 -56 -9 -511 -44 -847 -64 -179 -11 -353 -23
-386 -26 -59 -5 -62 -4 -68 20 -10 38 -64 94 -118 121 -146 74 -404 46 -520
-56 -24 -21 -53 -58 -63 -82 -10 -24 -20 -44 -20 -45 -1 -2 -447 -33 -476 -33
-3 0 -22 24 -42 53 -45 65 -166 187 -227 228 -70 47 -188 105 -262 127 -37 12
-115 27 -173 33 -362 42 -751 -123 -984 -419 -36 -45 -72 -82 -80 -82 -9 0
-133 -9 -276 -20 -163 -13 -272 -26 -293 -36 -44 -19 -62 -65 -69 -174 -7
-112 8 -181 49 -215 29 -25 32 -25 207 -25 l177 0 -12 -72 c-18 -100 -17 -338
1 -488 33 -264 112 -589 223 -920 229 -679 511 -1029 918 -1141 65 -18 96 -21
184 -16 85 4 126 12 215 42 121 40 168 65 192 101 13 20 13 27 3 40 -10 11
-25 14 -64 9 -28 -3 -67 -1 -86 3 l-35 9 30 8 c133 33 197 64 203 97 6 29 -28
50 -77 48 -80 -4 -135 0 -126 8 6 5 39 16 75 26 36 10 80 27 98 38 45 28 42
66 -8 91 -30 15 -51 17 -135 11 -123 -7 -217 10 -324 61 -40 20 -72 37 -69 40
2 2 38 -7 79 -21 58 -20 101 -27 200 -31 129 -6 169 2 169 32 0 8 25 104 55
214 30 110 55 206 55 214 0 7 -11 24 -25 37 -70 65 -50 201 35 245 16 8 51 15
77 15 90 0 153 -63 153 -153 0 -53 -19 -98 -50 -120 -20 -14 -20 -15 9 -118
80 -285 249 -906 293 -1074 27 -104 55 -212 63 -239 23 -76 23 -76 -50 -76
l-65 0 -175 130 -175 130 -130 -97 c-71 -54 -130 -101 -130 -104 0 -10 149
-74 250 -107 232 -76 410 -104 680 -105 151 -1 235 4 320 17 481 75 894 284
1218 617 251 259 424 561 527 921 63 221 95 418 110 683 8 121 -7 364 -31 520
-27 176 -94 423 -166 618 -22 59 -39 110 -37 112 3 2 94 13 204 24 236 25 477
53 744 87 212 27 242 37 275 93 25 44 27 187 4 243 -25 58 -56 72 -151 70 -77
-2 -465 -30 -729 -52 -64 -6 -132 -10 -152 -10 -34 0 -35 1 -25 29 19 53 69
97 139 121 109 37 181 81 255 155 98 98 162 228 179 365 4 30 10 63 12 73 5
14 -1 17 -38 16 -24 0 -72 -7 -108 -14z m-2357 -903 c34 -37 50 -104 50 -207
0 -119 -23 -198 -61 -203 -12 -2 -22 0 -22 5 -2 52 -23 228 -36 300 -14 75
-15 95 -4 107 17 21 53 20 73 -2z m201 -18 c29 -28 39 -117 25 -225 -12 -101
-41 -172 -66 -167 -16 3 -19 23 -26 183 -4 99 -5 190 -2 203 6 26 45 30 69 6z
m-1313 -21 c127 -46 260 -168 322 -296 56 -116 55 -122 -16 -53 -66 65 -125
99 -203 116 -36 8 -58 7 -98 -4 -29 -9 -62 -26 -73 -38 -58 -62 -70 -179 -28
-264 32 -64 69 -91 153 -110 178 -42 241 -74 268 -139 65 -156 -80 -361 -340
-480 -328 -151 -774 -113 -945 81 -52 60 -60 99 -31 159 30 62 93 114 262 216
78 47 151 97 160 110 28 37 33 115 14 183 -47 160 -203 210 -379 123 -119 -59
-224 -166 -304 -311 l-34 -61 5 95 c6 101 33 215 68 284 39 77 109 166 171
216 122 99 259 153 383 153 81 -1 139 -22 195 -71 l35 -30 23 33 c26 39 84 81
138 101 52 20 182 13 254 -13z m1496 -9 c25 -39 22 -191 -6 -266 -23 -59 -43
-84 -61 -73 -11 7 -15 347 -3 358 15 16 53 6 70 -19z m864 -270 c18 -103 17
-433 0 -544 -61 -387 -211 -721 -435 -965 l-46 -50 31 54 c127 223 253 536
313 776 50 199 90 483 103 724 7 133 13 134 34 5z m-456 -96 c-15 -70 -78
-277 -112 -368 -112 -301 -290 -594 -488 -801 -31 -32 -58 -59 -60 -59 -2 0
18 46 45 103 128 272 201 592 217 959 5 117 9 151 22 162 14 13 169 29 339 35
l44 1 -7 -32z m-1030 -115 c-35 -212 -114 -407 -224 -553 -62 -81 -186 -203
-178 -175 2 11 14 56 26 100 47 171 63 414 41 594 -6 46 -8 86 -5 89 6 6 165
17 291 20 l61 2 -12 -77z m-758 21 c16 -3 40 -15 53 -25 l25 -20 -65 6 c-36 3
-81 10 -100 14 l-35 8 25 11 c29 13 56 14 97 6z m-829 -143 c10 -6 -6 -16 -50
-33 -67 -27 -166 -53 -173 -46 -8 8 57 51 104 69 50 20 98 24 119 10z m610
-873 c21 -21 13 -39 -47 -104 -101 -111 -151 -234 -151 -374 0 -138 51 -266
145 -369 62 -66 66 -95 17 -108 -23 -5 -34 2 -89 62 -106 113 -163 261 -163
420 0 150 61 300 168 416 64 69 94 83 120 57z m810 -54 c108 -117 172 -278
172 -432 0 -77 -32 -201 -72 -279 -43 -84 -141 -193 -174 -193 -16 0 -28 8
-36 25 -10 22 -6 29 40 80 58 63 101 136 128 215 14 42 19 82 18 165 -1 93 -5
120 -27 178 -31 80 -93 173 -142 212 -36 28 -45 61 -23 83 26 26 56 12 116
-54z m-169 -139 c88 -82 128 -191 118 -321 -6 -86 -36 -157 -92 -224 -46 -56
-60 -64 -85 -50 -29 15 -26 61 6 91 76 71 106 222 64 331 -11 31 -41 79 -66
106 -24 28 -44 54 -44 59 0 14 30 53 41 53 5 0 31 -20 58 -45z m-497 11 c10
-23 6 -30 -35 -76 -59 -65 -87 -140 -87 -228 0 -78 30 -152 85 -214 19 -21 35
-42 35 -46 0 -16 -32 -52 -46 -52 -25 0 -96 83 -128 150 -29 60 -31 73 -31
170 0 93 3 112 27 162 34 73 112 158 145 158 15 0 27 -8 35 -24z M1747 3129
c-127 -30 -192 -114 -150 -197 62 -122 300 -102 369 30 59 113 -60 204 -219
167z M2021 2856 c-71 -65 -118 -91 -203 -111 -125 -29 -249 -14 -319 38 -23
18 -50 38 -60 45 -37 28 -84 -31 -61 -75 15 -28 110 -80 177 -98 76 -19 204
-19 280 0 135 34 305 148 305 203 0 19 -33 52 -52 52 -5 0 -35 -24 -67 -54z
M2262 1474 c-22 -82 -22 -86 -5 -109 10 -13 21 -25 25 -25 4 0 18 11 32 25
l25 25 -24 81 c-13 44 -25 82 -27 84 -2 2 -14 -34 -26 -81z M2333 1281 c-6
-10 -25 -23 -42 -29 -26 -9 -31 -8 -46 14 -8 13 -19 24 -24 24 -8 0 -31 -74
-31 -99 0 -6 16 -18 36 -26 69 -29 83 -81 37 -136 -19 -22 -24 -34 -15 -37 7
-2 19 -17 27 -33 14 -25 14 -33 1 -63 -8 -19 -23 -39 -34 -45 -19 -10 -19 -13
-6 -40 13 -27 13 -33 0 -59 -15 -28 -52 -64 -92 -88 -11 -7 -17 -13 -14 -16 3
-2 40 -30 83 -61 l77 -58 110 82 c61 44 110 84 110 88 0 4 -40 36 -90 70 -49
34 -90 65 -90 69 1 4 9 22 18 40 l18 32 63 -46 c44 -32 61 -40 58 -27 -3 10
-11 38 -17 63 -6 25 -16 60 -21 78 l-11 32 -37 -29 -38 -30 -17 37 -18 37 41
35 c24 21 41 44 41 57 0 12 -18 35 -45 57 -38 32 -43 40 -35 57 6 10 17 19 25
19 16 0 18 9 9 34 -8 21 -17 20 -31 -3z M2467 551 c-43 -32 -83 -63 -88 -68
-6 -6 36 -44 121 -106 71 -53 130 -93 130 -88 0 10 -79 314 -83 317 -1 2 -37
-23 -80 -55z M2036 592 c-8 -13 -77 -294 -74 -298 4 -3 221 155 240 174 6 6
-21 33 -71 71 -44 33 -82 61 -85 61 -3 0 -7 -4 -10 -8z M1868 568 c-9 -7 -28
-53 -42 -103 -14 -49 -41 -137 -59 -195 l-34 -105 35 -3 c19 -2 38 0 42 5 7 7
110 389 110 406 0 12 -35 8 -52 -5z"/>
  </g>
</svg>
